<svg width="20" height="20" viewBox="0 0 20 20" fill="none" xmlns="http://www.w3.org/2000/svg">
<g opacity="0.88">
<path d="M17.1653 14.7341C16.6894 14.7339 16.221 14.6139 15.8036 14.3851C15.3861 14.1562 15.033 13.8261 14.7769 13.4249C14.5208 13.8262 14.1678 14.1565 13.7503 14.3853C13.3329 14.6142 12.8646 14.7341 12.3885 14.7341C11.9125 14.7341 11.4441 14.6142 11.0266 14.3853C10.6091 14.1565 10.2561 13.8262 10 13.4249C9.74409 13.8262 9.39097 14.1565 8.9736 14.3853C8.55613 14.6142 8.08773 14.7341 7.61168 14.7341C7.13563 14.7341 6.66723 14.6142 6.24987 14.3853C5.8324 14.1565 5.47938 13.8262 5.22333 13.4249C4.89339 13.9417 4.4048 14.3377 3.83079 14.5533C3.25677 14.7689 2.62829 14.7925 2.03974 14.6206C1.45108 14.4487 0.934174 14.0906 0.566447 13.5999C0.198708 13.1092 3.35188e-05 12.5126 0.000244308 11.8994C0.000244308 11.7811 0.0472612 11.6675 0.130956 11.5839C0.21465 11.5003 0.328165 11.4532 0.446529 11.4532C0.564893 11.4532 0.678409 11.5003 0.762104 11.5839C0.845798 11.6675 0.892815 11.7811 0.892815 11.8994C0.889864 12.1563 0.937924 12.4112 1.03421 12.6494C1.13046 12.8877 1.27302 13.1044 1.45375 13.2871C1.63436 13.4698 1.84948 13.6149 2.08656 13.7138C2.32364 13.8128 2.57803 13.8638 2.83486 13.8638C3.0918 13.8638 3.34619 13.8128 3.58328 13.7138C3.82036 13.6149 4.03547 13.4698 4.21609 13.2871C4.39681 13.1044 4.53937 12.8877 4.63567 12.6494C4.73185 12.4112 4.78 12.1563 4.77701 11.8994C4.77701 11.7811 4.82405 11.6675 4.9077 11.5839C4.99146 11.5003 5.10495 11.4532 5.22333 11.4532C5.3417 11.4532 5.4552 11.5003 5.53885 11.5839C5.62261 11.6675 5.66953 11.7811 5.66953 11.8994C5.66665 12.1563 5.71469 12.4112 5.81099 12.6494C5.90728 12.8877 6.04984 13.1044 6.23046 13.2871C6.41107 13.4698 6.62619 13.6149 6.86327 13.7138C7.10035 13.8128 7.35474 13.8638 7.61168 13.8638C7.86862 13.8638 8.12301 13.8128 8.36009 13.7138C8.59718 13.6149 8.81229 13.4698 8.99291 13.2871C9.17352 13.1044 9.31608 12.8877 9.41238 12.6494C9.50868 12.4112 9.55671 12.1563 9.55383 11.8994C9.55383 11.7811 9.60087 11.6675 9.68452 11.5839C9.76817 11.5003 9.88166 11.4532 10 11.4532C10.1184 11.4532 10.2319 11.5003 10.3157 11.5839C10.3993 11.6675 10.4464 11.7811 10.4464 11.8994C10.4435 12.1563 10.4915 12.4112 10.5878 12.6494C10.684 12.8877 10.8267 13.1044 11.0073 13.2871C11.1879 13.4698 11.403 13.6149 11.6401 13.7138C11.8772 13.8128 12.1316 13.8638 12.3885 13.8638C12.6454 13.8638 12.8997 13.8128 13.1369 13.7138C13.374 13.6149 13.589 13.4698 13.7697 13.2871C13.9503 13.1044 14.0929 12.8877 14.1892 12.6494C14.2855 12.4112 14.3335 12.1563 14.3305 11.8994C14.3305 11.7811 14.3776 11.6675 14.4613 11.5839C14.545 11.5003 14.6585 11.4532 14.7769 11.4532C14.8952 11.4532 15.0087 11.5003 15.0924 11.5839C15.1761 11.6675 15.2232 11.7811 15.2232 11.8994C15.2202 12.1563 15.2682 12.4112 15.3645 12.6494C15.4608 12.8877 15.6034 13.1044 15.784 13.2871C15.9647 13.4698 16.1797 13.6149 16.4168 13.7138C16.654 13.8128 16.9083 13.8638 17.1652 13.8638C17.4222 13.8638 17.6765 13.8128 17.9136 13.7138C18.1507 13.6149 18.3658 13.4698 18.5464 13.2871C18.727 13.1044 18.8697 12.8877 18.9659 12.6494C19.0622 12.4112 19.1102 12.1563 19.1074 11.8994C19.1074 11.7811 19.1544 11.6675 19.238 11.5839C19.3218 11.5003 19.4353 11.4532 19.5537 11.4532C19.6719 11.4532 19.7855 11.5003 19.8692 11.5839C19.9528 11.6675 19.9999 11.7811 19.9999 11.8994C19.9991 12.651 19.7002 13.3714 19.1688 13.9029C18.6374 14.4342 17.917 14.7332 17.1653 14.7341Z" fill="#AFD1FD"/>
<path d="M17.1659 19.9988C16.6899 19.9987 16.2215 19.8786 15.8041 19.6497C15.3866 19.421 15.0335 19.0906 14.7773 18.6895C14.5214 19.0908 14.1684 19.4212 13.7509 19.6501C13.3334 19.8789 12.865 19.9989 12.389 19.9989C11.9129 19.9989 11.4445 19.8789 11.0271 19.6501C10.6096 19.4212 10.2566 19.0908 10.0006 18.6895C9.74457 19.0908 9.39155 19.4212 8.97419 19.6501C8.55672 19.8789 8.08832 19.9989 7.61216 19.9989C7.13611 19.9989 6.66771 19.8789 6.25024 19.6501C5.83287 19.4212 5.47986 19.0908 5.2238 18.6895C4.8942 19.2065 4.40561 19.6028 3.83149 19.8187C3.25747 20.0346 2.62888 20.0583 2.04011 19.8866C1.45134 19.7147 0.934185 19.3565 0.566336 18.8659C0.198475 18.3751 -0.000243847 17.7783 2.24563e-07 17.165C2.24563e-07 17.0466 0.0470171 16.9332 0.130712 16.8495C0.214406 16.7658 0.327922 16.7187 0.446286 16.7187C0.56465 16.7187 0.678165 16.7658 0.761859 16.8495C0.845554 16.9332 0.892571 17.0466 0.892571 17.165C0.889631 17.4219 0.93768 17.6769 1.03397 17.915C1.13027 18.1532 1.27283 18.37 1.45345 18.5527C1.63406 18.7354 1.84918 18.8804 2.08626 18.9793C2.32334 19.0784 2.57773 19.1293 2.83467 19.1293C3.09162 19.1293 3.346 19.0784 3.58309 18.9793C3.82017 18.8804 4.03529 18.7354 4.2159 18.5527C4.39651 18.37 4.53907 18.1532 4.63537 17.915C4.73167 17.6769 4.77971 17.4219 4.77682 17.165C4.77682 17.0466 4.82375 16.9332 4.90751 16.8495C4.99116 16.7658 5.10465 16.7187 5.22303 16.7187C5.3414 16.7187 5.4549 16.7658 5.53866 16.8495C5.62231 16.9332 5.66935 17.0466 5.66935 17.165C5.66635 17.4219 5.7145 17.6769 5.81069 17.915C5.90698 18.1532 6.04966 18.37 6.23027 18.5527C6.41088 18.7354 6.626 18.8804 6.86308 18.9793C7.10016 19.0784 7.35455 19.1293 7.61149 19.1293C7.86832 19.1293 8.12271 19.0784 8.3598 18.9793C8.59699 18.8804 8.81199 18.7354 8.99261 18.5527C9.17333 18.37 9.31589 18.1532 9.41219 17.915C9.50849 17.6769 9.55652 17.4219 9.55353 17.165C9.55353 17.0466 9.60057 16.9332 9.68422 16.8495C9.76798 16.7658 9.88147 16.7187 9.99985 16.7187C10.1182 16.7187 10.2317 16.7658 10.3154 16.8495C10.3991 16.9332 10.4462 17.0466 10.4462 17.165C10.4432 17.4219 10.4912 17.6769 10.5875 17.915C10.6838 18.1532 10.8264 18.37 11.007 18.5527C11.1877 18.7354 11.4027 18.8804 11.6398 18.9793C11.8769 19.0784 12.1313 19.1293 12.3882 19.1293C12.6451 19.1293 12.8995 19.0784 13.1366 18.9793C13.3737 18.8804 13.5888 18.7354 13.7694 18.5527C13.95 18.37 14.0926 18.1532 14.1889 17.915C14.2852 17.6769 14.3332 17.4219 14.3303 17.165C14.3303 17.0466 14.3774 16.9332 14.461 16.8495C14.5447 16.7658 14.6583 16.7187 14.7767 16.7187C14.8949 16.7187 15.0085 16.7658 15.0922 16.8495C15.1758 16.9332 15.2229 17.0466 15.2229 17.165C15.22 17.4219 15.268 17.6769 15.3643 17.915C15.4606 18.1532 15.6032 18.37 15.7838 18.5527C15.9644 18.7354 16.1795 18.8804 16.4166 18.9793C16.6537 19.0784 16.9081 19.1293 17.165 19.1293C17.422 19.1293 17.6764 19.0784 17.9134 18.9793C18.1505 18.8804 18.3655 18.7354 18.5462 18.5527C18.7269 18.37 18.8694 18.1532 18.9657 17.915C19.062 17.6769 19.1101 17.4219 19.1071 17.165C19.1071 17.0466 19.1541 16.9332 19.2379 16.8495C19.3215 16.7658 19.435 16.7187 19.5534 16.7187C19.6718 16.7187 19.7852 16.7658 19.869 16.8495C19.9527 16.9332 19.9997 17.0466 19.9997 17.165C19.9987 17.9163 19.6998 18.6364 19.1686 19.1676C18.6373 19.6989 17.9172 19.9978 17.1659 19.9988Z" fill="#9AA1EB"/>
<path d="M12.0004 1.81535L10.3154 0.130803C10.274 0.0893354 10.2249 0.0564434 10.1707 0.0340013C10.1166 0.0115482 10.0586 0 9.99998 0C9.9414 0 9.88338 0.0115482 9.82924 0.0340013C9.7751 0.0564434 9.72584 0.0893354 9.68446 0.130803L7.99959 1.81535C7.91583 1.89905 7.8689 2.01256 7.8689 2.13092C7.8689 2.24929 7.91583 2.36279 7.99959 2.44648C8.08324 2.53018 8.19684 2.5772 8.31511 2.5772C8.43348 2.5772 8.54708 2.53018 8.63073 2.44648L9.55366 1.52363V5.9719C9.55366 6.09026 9.6007 6.20377 9.68435 6.28746C9.76811 6.37115 9.8816 6.41816 9.99998 6.41816C10.1184 6.41816 10.2318 6.37115 10.3155 6.28746C10.3993 6.20377 10.4462 6.09026 10.4462 5.9719V1.52363L11.3691 2.44648C11.4106 2.48793 11.4597 2.5208 11.5139 2.54323C11.5681 2.56566 11.6262 2.5772 11.6847 2.5772C11.7433 2.5772 11.8013 2.56566 11.8555 2.54323C11.9097 2.5208 11.9589 2.48793 12.0004 2.44648C12.0417 2.40505 12.0746 2.35585 12.0971 2.3017C12.1195 2.24756 12.1311 2.18953 12.1311 2.13092C12.1311 2.07231 12.1195 2.01428 12.0971 1.96014C12.0746 1.906 12.0417 1.8568 12.0004 1.81535Z" fill="#BFFDFF"/>
<path d="M3.23142 3.18219C3.19004 3.14072 3.14089 3.10782 3.08664 3.08536C3.0325 3.06292 2.97448 3.05136 2.9159 3.05136C2.85722 3.05136 2.79919 3.06292 2.74505 3.08536C2.69091 3.10782 2.64177 3.14072 2.60027 3.18219L0.915635 4.86674C0.83193 4.95044 0.784912 5.06395 0.784912 5.1823C0.784912 5.30067 0.83193 5.41418 0.915635 5.49787C0.99933 5.58157 1.11288 5.62858 1.23125 5.62858C1.34963 5.62858 1.46312 5.58157 1.54677 5.49787L2.4697 4.57501V9.02332C2.4697 9.14169 2.51674 9.25517 2.60039 9.33882C2.68415 9.42257 2.79764 9.4695 2.91602 9.4695C3.03439 9.4695 3.14788 9.42257 3.23153 9.33882C3.31529 9.25517 3.36233 9.14169 3.36233 9.02332V4.57501L4.28526 5.49787C4.36935 5.57915 4.48218 5.6241 4.59911 5.62306C4.71616 5.62202 4.8281 5.57507 4.91086 5.49231C4.99351 5.40955 5.04044 5.29762 5.04144 5.1806C5.04244 5.0636 4.99739 4.95089 4.91618 4.86674L3.23142 3.18219Z" fill="#BFFDFF"/>
<path d="M19.0838 4.86674L17.3991 3.18219C17.3577 3.14072 17.3085 3.10782 17.2544 3.08536C17.2002 3.06292 17.1421 3.05136 17.0836 3.05136C17.0249 3.05136 16.9668 3.06292 16.9127 3.08536C16.8586 3.10782 16.8094 3.14072 16.7679 3.18219L15.0833 4.86674C15.0407 4.90789 15.0066 4.95713 14.9832 5.01157C14.9598 5.06601 14.9475 5.12457 14.947 5.18382C14.9465 5.24307 14.9578 5.30183 14.9802 5.35669C15.0026 5.41154 15.0357 5.46137 15.0776 5.50327C15.1196 5.54518 15.1694 5.57833 15.2242 5.60078C15.2791 5.62322 15.3378 5.63453 15.397 5.63403C15.4563 5.63353 15.5148 5.62123 15.5693 5.59785C15.6238 5.57447 15.673 5.54049 15.7142 5.49787L16.6371 4.57501V9.02332C16.6371 9.14169 16.6842 9.25517 16.7678 9.33882C16.8516 9.42257 16.9651 9.4695 17.0834 9.4695C17.2018 9.4695 17.3153 9.42257 17.399 9.33882C17.4827 9.25517 17.5297 9.14169 17.5297 9.02332V4.57501L18.4526 5.49787C18.5363 5.58157 18.6498 5.62858 18.7682 5.62858C18.8866 5.62858 19.0001 5.58157 19.0838 5.49787C19.1675 5.41418 19.2145 5.30067 19.2145 5.1823C19.2145 5.06395 19.1675 4.95044 19.0838 4.86674Z" fill="#BFFDFF"/>
<path d="M7.59305 6.93939C7.53447 6.93936 7.47634 6.95089 7.4222 6.97329C7.36806 6.99571 7.3188 7.02858 7.27742 7.07003C7.23593 7.11147 7.20309 7.16067 7.18068 7.21483C7.15827 7.26899 7.14673 7.32704 7.14673 7.38565V11.1469C7.14673 11.2653 7.19377 11.3788 7.27742 11.4625C7.36118 11.5462 7.47467 11.5932 7.59305 11.5932C7.71142 11.5932 7.82492 11.5462 7.90857 11.4625C7.99233 11.3788 8.03936 11.2653 8.03936 11.1469V7.3859C8.03936 7.32727 8.02783 7.26922 8.00542 7.21505C7.98301 7.16088 7.95017 7.11165 7.90868 7.07018C7.86729 7.02873 7.81804 6.99583 7.7639 6.97338C7.70976 6.95094 7.65162 6.93939 7.59305 6.93939Z" fill="#BFFDFF"/>
<path d="M12.4064 6.93939C12.3478 6.93936 12.2898 6.95089 12.2357 6.97329C12.1814 6.99571 12.1323 7.02858 12.0908 7.07003C12.0494 7.11147 12.0165 7.16067 11.994 7.21483C11.9716 7.26899 11.9601 7.32704 11.9602 7.38565V11.1469C11.9602 11.2653 12.0072 11.3788 12.0909 11.4625C12.1745 11.5462 12.2882 11.5932 12.4064 11.5932C12.5248 11.5932 12.6384 11.5462 12.722 11.4625C12.8057 11.3788 12.8527 11.2653 12.8527 11.1469V7.3859C12.8527 7.32727 12.8413 7.26922 12.8189 7.21505C12.7965 7.16088 12.7635 7.11165 12.7222 7.07018C12.6807 7.02873 12.6315 6.99583 12.5773 6.97338C12.5231 6.95094 12.4651 6.93939 12.4064 6.93939Z" fill="#BFFDFF"/>
</g>
</svg>
